<svg width="22" height="27" viewBox="0 0 22 27" fill="none" xmlns="http://www.w3.org/2000/svg">
<path d="M11.0001 14.75C13.0711 14.75 14.7501 13.0711 14.7501 11C14.7501 8.92893 13.0711 7.25 11.0001 7.25C8.92899 7.25 7.25006 8.92893 7.25006 11C7.25006 13.0711 8.92899 14.75 11.0001 14.75Z" stroke="#00C170" stroke-width="1.26042" stroke-linecap="round" stroke-linejoin="round"/>
<path d="M11 1C8.34784 1 5.8043 2.05357 3.92893 3.92893C2.05357 5.8043 1 8.34784 1 11C1 13.365 1.5025 14.9125 2.875 16.625L11 26L19.125 16.625C20.4975 14.9125 21 13.365 21 11C21 8.34784 19.9464 5.8043 18.0711 3.92893C16.1957 2.05357 13.6522 1 11 1V1Z" stroke="#00C170" stroke-width="1.26042" stroke-linecap="round" stroke-linejoin="round"/>
</svg>
