<svg width="25" height="25" viewBox="0 0 25 25" fill="none" xmlns="http://www.w3.org/2000/svg">
<g clip-path="url(#clip0_2_63)">
<path d="M19.7578 15.4868C19.246 14.9539 18.6287 14.669 17.9744 14.669C17.3254 14.669 16.7028 14.9487 16.1699 15.4816L14.5025 17.1436C14.3653 17.0698 14.2281 17.0012 14.0962 16.9326C13.9063 16.8376 13.7269 16.7479 13.5739 16.6529C12.012 15.661 10.5927 14.3682 9.23138 12.6956C8.57182 11.8619 8.1286 11.1602 7.80674 10.4479C8.23941 10.0521 8.64042 9.64057 9.03087 9.24484C9.17861 9.0971 9.32635 8.94408 9.47409 8.79634C10.5821 7.68829 10.5821 6.25311 9.47409 5.14506L8.03363 3.7046C7.87006 3.54103 7.70121 3.37218 7.54292 3.20334C7.22634 2.8762 6.89392 2.53851 6.55095 2.22192C6.03914 1.71539 5.42708 1.44629 4.78335 1.44629C4.13963 1.44629 3.51701 1.71539 2.98937 2.22192C2.98409 2.2272 2.98409 2.2272 2.97882 2.23248L1.18483 4.04229C0.509452 4.71767 0.124273 5.54079 0.0398506 6.49582C-0.0867835 8.03654 0.366989 9.47173 0.715232 10.4109C1.57001 12.7167 2.84691 14.8537 4.75169 17.1436C7.06277 19.9032 9.84344 22.0824 13.0198 23.6178C14.2334 24.1929 15.8533 24.8736 17.6631 24.9897C17.7739 24.995 17.89 25.0002 17.9955 25.0002C19.2144 25.0002 20.238 24.5623 21.04 23.6917C21.0453 23.6811 21.0558 23.6759 21.0611 23.6653C21.3355 23.3329 21.6521 23.0321 21.9845 22.7103C22.2114 22.4939 22.4435 22.267 22.6704 22.0296C23.1928 21.4861 23.4672 20.853 23.4672 20.204C23.4672 19.5497 23.1875 18.9218 22.6546 18.3942L19.7578 15.4868ZM21.6468 21.0429C21.6415 21.0429 21.6415 21.0482 21.6468 21.0429C21.441 21.2645 21.23 21.465 21.0031 21.6866C20.6601 22.0138 20.3119 22.3567 19.9847 22.7419C19.4518 23.3118 18.8239 23.5809 18.0008 23.5809C17.9216 23.5809 17.8372 23.5809 17.7581 23.5756C16.191 23.4753 14.7347 22.8633 13.6425 22.3409C10.656 20.8952 8.03363 18.8426 5.85447 16.2414C4.05521 14.0728 2.85218 12.0677 2.05544 9.91495C1.56474 8.60112 1.38534 7.57749 1.46448 6.61191C1.51725 5.99456 1.75469 5.48275 2.19263 5.04481L3.99189 3.24555C4.25043 3.00283 4.52481 2.87092 4.79391 2.87092C5.12632 2.87092 5.39542 3.07143 5.56426 3.24027C5.56954 3.24555 5.57482 3.25083 5.58009 3.2561C5.90195 3.55686 6.20799 3.86817 6.52985 4.20058C6.69342 4.36943 6.86226 4.53827 7.03111 4.71239L8.47157 6.15286C9.03087 6.71216 9.03087 7.22925 8.47157 7.78855C8.31855 7.94156 8.17081 8.09458 8.0178 8.24232C7.57458 8.69609 7.15247 9.11821 6.69342 9.52977C6.68286 9.54032 6.67231 9.5456 6.66704 9.55615C6.21326 10.0099 6.29769 10.4531 6.39266 10.7539C6.39794 10.7697 6.40321 10.7856 6.40849 10.8014C6.78312 11.7089 7.31076 12.5637 8.11277 13.5821L8.11805 13.5873C9.57434 15.3813 11.1098 16.7796 12.8035 17.8507C13.0198 17.9879 13.2415 18.0987 13.4525 18.2042C13.6425 18.2992 13.8219 18.3889 13.9749 18.4839C13.996 18.4944 14.0171 18.5102 14.0382 18.5208C14.2176 18.6105 14.3864 18.6527 14.5606 18.6527C14.9985 18.6527 15.2729 18.3783 15.3626 18.2886L17.1671 16.4841C17.3465 16.3047 17.6314 16.0884 17.9639 16.0884C18.291 16.0884 18.5601 16.2941 18.7237 16.4735C18.7289 16.4788 18.7289 16.4788 18.7342 16.4841L21.6415 19.3914C22.185 19.9296 22.185 20.4836 21.6468 21.0429Z" fill="#00C170"/>
<path d="M13.5106 5.94676C14.893 6.17892 16.1488 6.83319 17.1513 7.83571C18.1538 8.83823 18.8028 10.094 19.0403 11.4764C19.0983 11.8247 19.3991 12.0674 19.742 12.0674C19.7842 12.0674 19.8212 12.0621 19.8634 12.0569C20.2538 11.9935 20.5124 11.6242 20.4491 11.2337C20.1641 9.5611 19.3727 8.03622 18.1644 6.82792C16.9561 5.61962 15.4312 4.82815 13.7586 4.54323C13.3681 4.47991 13.004 4.73846 12.9354 5.12363C12.8668 5.50881 13.1201 5.88344 13.5106 5.94676Z" fill="#00C170"/>
<path d="M24.9708 11.028C24.5012 8.27374 23.2032 5.76744 21.2087 3.77295C19.2143 1.77846 16.708 0.480461 13.9537 0.0108597C13.5685 -0.0577338 13.2044 0.206087 13.1358 0.591266C13.0725 0.981721 13.3311 1.34579 13.7215 1.41439C16.1803 1.83122 18.4228 2.99731 20.2062 4.77547C21.9897 6.5589 23.1505 8.80138 23.5673 11.2602C23.6253 11.6084 23.9261 11.8511 24.2691 11.8511C24.3113 11.8511 24.3482 11.8459 24.3904 11.8406C24.7756 11.7826 25.0394 11.4132 24.9708 11.028Z" fill="#00C170"/>
</g>
<defs>
<clipPath id="clip0_2_63">
<rect width="25" height="25" fill="white"/>
</clipPath>
</defs>
</svg>
