<svg width="25" height="25" viewBox="0 0 25 25" fill="none" xmlns="http://www.w3.org/2000/svg">
<g clip-path="url(#clip0_2_30)">
<path d="M19.7578 15.4868C19.246 14.9539 18.6287 14.669 17.9744 14.669C17.3254 14.669 16.7028 14.9487 16.1699 15.4816L14.5025 17.1436C14.3653 17.0698 14.2281 17.0012 14.0962 16.9326C13.9063 16.8376 13.7269 16.7479 13.5739 16.6529C12.012 15.661 10.5927 14.3682 9.23136 12.6956C8.57181 11.8619 8.12859 11.1602 7.80673 10.4479C8.2394 10.0521 8.64041 9.64057 9.03086 9.24484C9.1786 9.0971 9.32634 8.94408 9.47408 8.79634C10.5821 7.68829 10.5821 6.25311 9.47408 5.14506L8.03362 3.7046C7.87005 3.54103 7.7012 3.37218 7.54291 3.20334C7.22632 2.8762 6.89391 2.53851 6.55094 2.22192C6.03913 1.71539 5.42706 1.44629 4.78334 1.44629C4.13962 1.44629 3.517 1.71539 2.98936 2.22192C2.98408 2.2272 2.98408 2.2272 2.97881 2.23248L1.18482 4.04229C0.509441 4.71767 0.124262 5.54079 0.0398391 6.49582C-0.086795 8.03654 0.366977 9.47173 0.715221 10.4109C1.57 12.7167 2.8469 14.8537 4.75168 17.1436C7.06276 19.9032 9.84343 22.0824 13.0198 23.6178C14.2334 24.1929 15.8533 24.8736 17.6631 24.9897C17.7739 24.995 17.89 25.0002 17.9955 25.0002C19.2144 25.0002 20.238 24.5623 21.04 23.6917C21.0453 23.6811 21.0558 23.6759 21.0611 23.6653C21.3355 23.3329 21.6521 23.0321 21.9845 22.7103C22.2114 22.4939 22.4435 22.267 22.6704 22.0296C23.1928 21.4861 23.4671 20.853 23.4671 20.204C23.4671 19.5497 23.1875 18.9218 22.6546 18.3942L19.7578 15.4868ZM21.6468 21.0429C21.6415 21.0429 21.6415 21.0482 21.6468 21.0429C21.441 21.2645 21.2299 21.465 21.0031 21.6866C20.6601 22.0138 20.3118 22.3567 19.9847 22.7419C19.4518 23.3118 18.8239 23.5809 18.0008 23.5809C17.9216 23.5809 17.8372 23.5809 17.7581 23.5756C16.191 23.4753 14.7347 22.8633 13.6425 22.3409C10.656 20.8952 8.03362 18.8426 5.85445 16.2414C4.0552 14.0728 2.85217 12.0677 2.05543 9.91495C1.56472 8.60112 1.38533 7.57749 1.46447 6.61191C1.51724 5.99456 1.75468 5.48275 2.19262 5.04481L3.99188 3.24555C4.25042 3.00283 4.5248 2.87092 4.79389 2.87092C5.12631 2.87092 5.39541 3.07143 5.56425 3.24027C5.56953 3.24555 5.5748 3.25083 5.58008 3.2561C5.90194 3.55686 6.20797 3.86817 6.52984 4.20058C6.69341 4.36943 6.86225 4.53827 7.0311 4.71239L8.47156 6.15286C9.03086 6.71216 9.03086 7.22925 8.47156 7.78855C8.31854 7.94156 8.1708 8.09458 8.01779 8.24232C7.57457 8.69609 7.15245 9.11821 6.69341 9.52977C6.68285 9.54032 6.6723 9.5456 6.66702 9.55615C6.21325 10.0099 6.29767 10.4531 6.39265 10.7539C6.39793 10.7697 6.4032 10.7856 6.40848 10.8014C6.7831 11.7089 7.31075 12.5637 8.11276 13.5821L8.11804 13.5873C9.57433 15.3813 11.1098 16.7796 12.8035 17.8507C13.0198 17.9879 13.2414 18.0987 13.4525 18.2042C13.6425 18.2992 13.8218 18.3889 13.9749 18.4839C13.996 18.4944 14.0171 18.5102 14.0382 18.5208C14.2176 18.6105 14.3864 18.6527 14.5605 18.6527C14.9985 18.6527 15.2729 18.3783 15.3626 18.2886L17.1671 16.4841C17.3465 16.3047 17.6314 16.0884 17.9638 16.0884C18.291 16.0884 18.5601 16.2941 18.7236 16.4735C18.7289 16.4788 18.7289 16.4788 18.7342 16.4841L21.6415 19.3914C22.185 19.9296 22.185 20.4836 21.6468 21.0429Z" fill="white"/>
<path d="M13.5105 5.94676C14.8929 6.17892 16.1487 6.83319 17.1513 7.83571C18.1538 8.83823 18.8028 10.094 19.0402 11.4764C19.0983 11.8247 19.399 12.0674 19.742 12.0674C19.7842 12.0674 19.8211 12.0621 19.8633 12.0569C20.2538 11.9935 20.5123 11.6242 20.449 11.2337C20.1641 9.5611 19.3726 8.03622 18.1643 6.82792C16.956 5.61962 15.4311 4.82815 13.7585 4.54323C13.3681 4.47991 13.004 4.73846 12.9354 5.12363C12.8668 5.50881 13.1201 5.88344 13.5105 5.94676Z" fill="white"/>
<path d="M24.9708 11.028C24.5012 8.27374 23.2032 5.76744 21.2087 3.77295C19.2142 1.77846 16.7079 0.480461 13.9537 0.0108597C13.5685 -0.0577338 13.2044 0.206087 13.1358 0.591266C13.0725 0.981721 13.331 1.34579 13.7215 1.41439C16.1803 1.83122 18.4228 2.99731 20.2062 4.77547C21.9896 6.5589 23.1505 8.80138 23.5673 11.2602C23.6253 11.6084 23.9261 11.8511 24.2691 11.8511C24.3113 11.8511 24.3482 11.8459 24.3904 11.8406C24.7756 11.7826 25.0394 11.4132 24.9708 11.028Z" fill="white"/>
</g>
<defs>
<clipPath id="clip0_2_30">
<rect width="25" height="25" fill="white"/>
</clipPath>
</defs>
</svg>
