<svg width="65" height="65" viewBox="0 0 65 65" fill="none" xmlns="http://www.w3.org/2000/svg">
<g clip-path="url(#clip0_2_353)">
<path d="M43.412 41.6859C41.872 41.6859 40.6191 40.6015 40.6191 39.2686C40.6191 37.9356 41.872 36.8512 43.412 36.8512C44.9521 36.8512 46.205 37.9356 46.205 39.2686C46.205 39.9697 46.7735 40.5382 47.4745 40.5382C48.1756 40.5382 48.7441 39.9697 48.7441 39.2686C48.7441 36.9422 47.0106 34.9861 44.6816 34.4552V33.7949C44.6816 33.0939 44.1131 32.5254 43.412 32.5254C42.711 32.5254 42.1425 33.0939 42.1425 33.7949V34.4552C39.8134 34.9861 38.08 36.9422 38.08 39.2686C38.08 42.0015 40.4719 44.225 43.412 44.225C44.9521 44.225 46.205 45.3094 46.205 46.6424C46.205 47.9754 44.9521 49.0599 43.412 49.0599C41.872 49.0599 40.6191 47.9754 40.6191 46.6424C40.6191 45.9414 40.0506 45.3729 39.3495 45.3729C38.6485 45.3729 38.08 45.9414 38.08 46.6424C38.08 48.9688 39.8134 50.9249 42.1425 51.4558V52.0043C42.1425 52.7053 42.711 53.2738 43.412 53.2738C44.1131 53.2738 44.6816 52.7053 44.6816 52.0043V51.4558C47.0106 50.9249 48.7441 48.9688 48.7441 46.6424C48.7441 43.9094 46.3521 41.6859 43.412 41.6859Z" fill="#00C170"/>
<path d="M57.3172 34.1346C55.6588 31.5505 53.3224 29.4827 50.5605 28.155C49.9284 27.8511 49.1699 28.1172 48.8662 28.7491C48.5624 29.3811 48.8284 30.1395 49.4603 30.4433C54.2732 32.7569 57.383 37.7003 57.383 43.0372C57.383 45.3208 56.8201 47.5855 55.7553 49.5868C55.426 50.2057 55.6607 50.9745 56.2797 51.3039C56.4697 51.4049 56.6738 51.4529 56.8749 51.4529C57.3291 51.4529 57.7685 51.2084 57.9968 50.7794C59.2563 48.4125 59.922 45.7352 59.922 43.0372C59.922 39.8684 59.0213 36.79 57.3172 34.1346Z" fill="#00C170"/>
<path d="M45.4077 26.5333L45.3223 26.5332C44.6212 26.5332 44.0527 27.1016 44.0527 27.8027C44.0527 28.5039 44.6212 29.0723 45.3223 29.0723L45.3958 29.0724C45.3978 29.0724 45.3997 29.0724 45.4019 29.0724C46.1002 29.0724 46.668 28.508 46.6713 27.8088C46.6745 27.1077 46.1087 26.5366 45.4077 26.5333Z" fill="#00C170"/>
<path d="M37.3756 55.6309C32.5628 53.3172 29.4531 48.3737 29.4531 43.037C29.4531 40.7534 30.016 38.4887 31.0808 36.4874C31.4101 35.8685 31.1754 35.0997 30.5563 34.7704C29.9376 34.441 29.1685 34.6758 28.8393 35.2948C27.5798 37.6618 26.9141 40.339 26.9141 43.037C26.9141 46.2058 27.8148 49.2841 29.5189 51.9396C31.1773 54.5237 33.5137 56.5915 36.2756 57.9193C36.4529 58.0046 36.6403 58.0449 36.8248 58.0449C37.2975 58.0449 37.7513 57.7797 37.9699 57.3252C38.2734 56.6932 38.0076 55.9347 37.3756 55.6309Z" fill="#00C170"/>
<path d="M41.5132 57.002L41.4397 57.0017C40.7354 57.0004 40.1676 57.564 40.1645 58.2653C40.1612 58.9664 40.7271 59.5375 41.4282 59.5408L41.5132 59.541C42.2143 59.541 42.7827 58.9725 42.7827 58.2715C42.7827 57.5705 42.2143 57.002 41.5132 57.002Z" fill="#00C170"/>
<path d="M49.1827 22.2381C49.0282 21.8699 48.8389 21.523 48.6186 21.2011H51.9237C55.1438 21.2011 57.7636 18.5813 57.7636 15.3613C57.7636 12.1413 55.1438 9.52147 51.9237 9.52147H41.7573C42.4037 8.58176 42.7831 7.4449 42.7831 6.22069C42.7831 3.00066 40.1633 0.380859 36.9433 0.380859H5.83983C2.6198 0.380859 0 3.00066 0 6.22069C0 9.44073 2.6198 12.0605 5.83983 12.0605H16.0062C15.3599 13.0002 14.9804 14.1371 14.9804 15.3613C14.9804 16.5855 15.3598 17.7224 16.0062 18.6621H12.6953C9.47526 18.6621 6.85546 21.2819 6.85546 24.5019C6.85546 26.3512 7.72051 28.0015 9.06634 29.0722C7.72051 30.1429 6.85546 31.7932 6.85546 33.6425C6.85546 35.4918 7.72051 37.1421 9.06634 38.2128C7.72051 39.2835 6.85546 40.9338 6.85546 42.7831C6.85546 44.6324 7.72051 46.2827 9.06634 47.3534C7.72051 48.4241 6.85546 50.0744 6.85546 51.9237C6.85546 55.1438 9.47526 57.7636 12.6953 57.7636H27.6567C31.5981 61.9793 37.2051 64.6191 43.418 64.6191C55.3183 64.6191 65 54.9375 65 43.0372C65 33.1327 58.2931 24.7663 49.1827 22.2381ZM51.9237 12.0605C53.7439 12.0605 55.2245 13.5413 55.2245 15.3613C55.2245 17.1813 53.7439 18.6621 51.9237 18.6621H43.7987H20.8203C19.0002 18.6621 17.5195 17.1813 17.5195 15.3613C17.5195 13.5413 19.0002 12.0605 20.8203 12.0605H51.9237ZM5.83983 9.52147C4.01971 9.52147 2.53906 8.04069 2.53906 6.22069C2.53906 4.4007 4.01971 2.91992 5.83983 2.91992H36.9433C38.7634 2.91992 40.2441 4.4007 40.2441 6.22069C40.2441 8.04069 38.7634 9.52147 36.9433 9.52147H5.83983ZM12.6953 21.2011H43.7987C44.3101 21.2011 44.7998 21.32 45.239 21.5327C44.6385 21.4823 44.0315 21.4552 43.418 21.4552C37.4582 21.4552 32.0551 23.8836 28.1457 27.8027H12.6953C10.8753 27.8027 9.39451 26.3219 9.39451 24.5019C9.39451 22.6819 10.8753 21.2011 12.6953 21.2011ZM12.6953 30.3417H25.9765C24.5353 32.3162 23.421 34.5432 22.7134 36.9433H12.6953C10.8752 36.9433 9.39451 35.4626 9.39451 33.6425C9.39451 31.8225 10.8752 30.3417 12.6953 30.3417ZM12.6953 39.4823H22.1304C21.9378 40.6393 21.836 41.8264 21.836 43.0372C21.836 44.0713 21.9108 45.0882 22.0521 46.0839H12.6953C10.8752 46.0839 9.39451 44.6032 9.39451 42.7831C9.39451 40.963 10.8752 39.4823 12.6953 39.4823ZM12.6953 55.2245C10.8752 55.2245 9.39451 53.7439 9.39451 51.9237C9.39451 50.1036 10.8752 48.623 12.6953 48.623H22.5704C23.2111 51.0113 24.2517 53.2372 25.6164 55.2245H12.6953ZM43.418 62.0801C32.9177 62.0801 24.3751 53.5374 24.3751 43.0372C24.3751 32.5369 32.9177 23.9942 43.418 23.9942C53.9183 23.9942 62.4609 32.5369 62.4609 43.0372C62.4609 53.5374 53.9183 62.0801 43.418 62.0801Z" fill="#00C170"/>
</g>
<defs>
<clipPath id="clip0_2_353">
<path d="M0 5C0 2.23858 2.23858 0 5 0H60C62.7614 0 65 2.23858 65 5V60C65 62.7614 62.7614 65 60 65H5C2.23858 65 0 62.7614 0 60V5Z" fill="white"/>
</clipPath>
</defs>
</svg>
