<svg width="65" height="65" viewBox="0 0 65 65" fill="none" xmlns="http://www.w3.org/2000/svg">
<g clip-path="url(#clip0_2_396)">
<path d="M59.2103 11.2241C50.2671 8.77362 41.2713 4.95805 33.1955 0.189953C32.7665 -0.0633177 32.2342 -0.0633177 31.8054 0.189953C23.4965 5.09503 14.9869 8.70418 5.78979 11.2241C5.19565 11.3867 4.78381 11.9267 4.78381 12.5429V26.5135C4.78381 40.9002 11.4208 50.4232 16.9887 55.8785C22.9829 61.7519 29.9653 65 32.5004 65C35.0353 65 42.0177 61.7519 48.0119 55.8785C53.5797 50.4233 60.2163 40.9003 60.2163 26.5135V12.5427C60.2163 11.9267 59.8044 11.3867 59.2103 11.2241ZM57.4817 26.5134C57.4817 39.9505 51.2913 48.8365 46.098 53.925C40.2034 59.7008 33.9011 62.2652 32.5004 62.2652C31.0997 62.2652 24.797 59.7008 18.9024 53.925C13.7091 48.8364 7.51851 39.9505 7.51851 26.5134V13.5807C16.3135 11.0835 24.5043 7.59854 32.5007 2.95169C40.2974 7.47527 48.8968 11.1335 57.4817 13.5802V26.5134Z" fill="#FFFFFF"/>
<path d="M20.3811 13.4277C20.1044 12.725 19.3105 12.3798 18.6077 12.6567C16.1651 13.6192 13.6581 14.505 11.1562 15.2899C10.5861 15.4689 10.1981 15.997 10.1981 16.5944V21.8745C10.1981 22.6296 10.8104 23.2418 11.5654 23.2418C12.3204 23.2418 12.9327 22.6296 12.9327 21.8745V17.5937C15.1771 16.8675 17.419 16.0643 19.6101 15.2009C20.3128 14.9242 20.658 14.1304 20.3811 13.4277Z" fill="#FFFFFF"/>
<path d="M22.9784 13.6871C23.1618 13.6871 23.3481 13.6501 23.5267 13.5722L23.5518 13.5612C24.2436 13.2581 24.5551 12.4528 24.252 11.7613C23.9485 11.0695 23.1387 10.7566 22.4477 11.0595L22.4256 11.069C21.7335 11.3713 21.4209 12.1759 21.7232 12.8678C21.9475 13.3815 22.4509 13.6871 22.9784 13.6871Z" fill="#FFFFFF"/>
<path d="M48.7907 44.0886C48.1589 43.6757 47.3116 43.8533 46.8981 44.4854C45.7714 46.2099 44.4496 47.8613 42.9688 49.3932C41.751 50.6529 40.4315 51.8269 39.0468 52.8825C38.4465 53.3403 38.3309 54.1983 38.7886 54.7989C39.0579 55.1517 39.465 55.3373 39.8768 55.3373C40.166 55.3373 40.4574 55.246 40.705 55.0571C42.1986 53.9182 43.6217 52.6521 44.9346 51.294C46.5356 49.638 47.9664 47.8505 49.1874 45.9811C49.6007 45.3489 49.4228 44.5016 48.7907 44.0886Z" fill="#FFFFFF"/>
<path d="M35.8722 55.027L35.7937 55.0732C35.1403 55.4516 34.917 56.288 35.2953 56.9414C35.5488 57.3794 36.0078 57.6239 36.4799 57.6239C36.7122 57.6239 36.9481 57.5647 37.1635 57.4396L37.2541 57.3864C37.9057 57.0048 38.1246 56.1673 37.743 55.5156C37.3611 54.8642 36.5235 54.6457 35.8722 55.027Z" fill="#FFFFFF"/>
<path d="M23.1806 29.7094C22.341 28.8698 21.2245 28.4077 20.0369 28.4077C18.8494 28.4077 17.7328 28.8699 16.8928 29.7094C15.1595 31.4431 15.1595 34.264 16.8928 35.9975L24.9665 44.071C25.8062 44.9104 26.9227 45.3726 28.1104 45.3726C29.298 45.3726 30.4146 44.9104 31.2544 44.0707L48.1088 27.2162C49.8419 25.4822 49.8419 22.6616 48.1085 20.9286C47.2688 20.0889 46.1523 19.6268 44.9645 19.6268C43.7769 19.6268 42.6603 20.0891 41.8205 20.9286L28.1103 34.6389L23.1806 29.7094ZM43.7543 22.8624C44.0774 22.5393 44.5074 22.3614 44.9647 22.3614C45.4222 22.3614 45.8518 22.5393 46.1751 22.8624C46.8423 23.5295 46.8423 24.6154 46.1749 25.2828L29.3208 42.1371C28.9977 42.4602 28.5677 42.6381 28.1104 42.6381C27.6531 42.6381 27.2231 42.4602 26.8999 42.1371L18.8265 34.0639C18.1591 33.3965 18.1591 32.3106 18.8262 31.6434C19.1494 31.3203 19.5794 31.1422 20.0368 31.1422C20.4942 31.1422 20.924 31.3201 21.2471 31.6432L27.1434 37.5396C27.4 37.7959 27.7476 37.94 28.1103 37.94C28.473 37.94 28.8206 37.7961 29.0769 37.5396L43.7543 22.8624Z" fill="#FFFFFF"/>
</g>
<defs>
<clipPath id="clip0_2_396">
<rect width="65" height="65" fill="white"/>
</clipPath>
</defs>
</svg>
