<svg width="65" height="65" viewBox="0 0 65 65" fill="none" xmlns="http://www.w3.org/2000/svg">
<g clip-path="url(#clip0_2_377)">
<path d="M64.8747 35.5024C64.2911 29.6323 61.6686 24.0982 57.49 19.9194C53.919 16.3486 49.5482 14.0539 44.9491 13.0335V9.80784C46.8275 9.34052 48.2238 7.64021 48.2238 5.61921C48.2238 3.23905 46.2875 1.30273 43.9073 1.30273H34.7665C32.3864 1.30273 30.4501 3.23905 30.4501 5.61921C30.4501 7.64008 31.8463 9.34039 33.7246 9.80784V13.0425C29.1396 14.0672 24.7833 16.3587 21.2225 19.9196C20.4432 20.6988 19.7246 21.5163 19.0669 22.3659C19.035 22.3634 19.0031 22.361 18.9706 22.361H9.9237C9.22265 22.361 8.65415 22.9294 8.65415 23.6306C8.65415 24.3318 9.22265 24.9001 9.9237 24.9001H17.3394C16.4086 26.4585 15.658 28.0951 15.0867 29.7798H1.26955C0.568505 29.7798 0 30.3482 0 31.0493C0 31.7505 0.568505 32.3189 1.26955 32.3189H14.3693C14.0034 33.925 13.7934 35.5595 13.7392 37.1987H8.12513C7.42408 37.1987 6.85558 37.767 6.85558 38.4682C6.85558 39.1694 7.42408 39.7378 8.12513 39.7378H13.7797C13.8869 41.3811 14.1511 43.0157 14.5724 44.6175H6.34776C5.64671 44.6175 5.0782 45.1859 5.0782 45.8871C5.0782 46.5883 5.64671 47.1566 6.34776 47.1566H15.3826C16.6281 50.4512 18.5744 53.5392 21.2225 56.1872C25.4051 60.3699 30.9449 62.993 36.8212 63.5736C37.6598 63.6564 38.4991 63.6974 39.3373 63.6974C44.2913 63.6974 49.1824 62.2637 53.3326 59.561C53.9201 59.1784 54.0863 58.3919 53.7037 57.8044C53.321 57.2168 52.5345 57.0506 51.947 57.4333C42.8625 63.349 30.696 62.0699 23.0179 54.3918C14.0089 45.3828 14.0089 30.7242 23.0179 21.7151C32.0267 12.7062 46.6853 12.7062 55.6944 21.7151C63.3624 29.3832 64.6485 41.5392 58.7523 50.6193C58.3704 51.2074 58.5376 51.9938 59.1255 52.3755C59.7138 52.7574 60.5 52.5902 60.8817 52.0021C64.032 47.1505 65.4501 41.2909 64.8747 35.5024ZM32.9892 5.61933C32.9892 4.63924 33.7864 3.84196 34.7665 3.84196H43.9073C44.8874 3.84196 45.6847 4.63924 45.6847 5.61933C45.6847 6.59943 44.8874 7.39671 43.9073 7.39671H43.6795H34.9942H34.7665C33.7864 7.39671 32.9892 6.5993 32.9892 5.61933ZM36.2637 12.6061V9.93581H42.41V12.6015C40.3691 12.3587 38.3043 12.3603 36.2637 12.6061Z" fill="white"/>
<path d="M56.5927 54.0194C56.2576 54.0194 55.9313 54.1552 55.6953 54.3914C55.4579 54.6275 55.3232 54.9551 55.3232 55.2889C55.3232 55.6228 55.4579 55.9504 55.6953 56.1865C55.9313 56.4239 56.2577 56.5585 56.5927 56.5585C56.9266 56.5585 57.2529 56.4239 57.4903 56.1865C57.7264 55.9504 57.8622 55.6228 57.8622 55.2889C57.8622 54.9551 57.7265 54.6275 57.4903 54.3914C57.2529 54.1552 56.9265 54.0194 56.5927 54.0194Z" fill="white"/>
<path d="M39.3563 18.3589C28.4968 18.3589 19.6619 27.1937 19.6619 38.0533C19.6619 48.9129 28.4968 57.7477 39.3563 57.7477C50.2158 57.7477 59.0507 48.9129 59.0507 38.0533C59.0507 27.1937 50.2158 18.3589 39.3563 18.3589ZM39.3563 55.2086C29.8967 55.2086 22.201 47.5127 22.201 38.0533C22.201 28.5939 29.8967 20.898 39.3563 20.898C48.8158 20.898 56.5116 28.5939 56.5116 38.0533C56.5116 47.5127 48.8158 55.2086 39.3563 55.2086Z" fill="white"/>
<path d="M47.3869 28.2273L41.0989 34.5152C40.573 34.2552 39.9815 34.1084 39.3563 34.1084C38.7309 34.1084 38.1395 34.2552 37.6137 34.5152L34.7995 31.701C34.3036 31.2053 33.5 31.2053 33.004 31.701C32.5082 32.1968 32.5082 33.0007 33.004 33.4964L35.8182 36.3106C35.558 36.8365 35.4113 37.428 35.4113 38.0532C35.4113 40.2285 37.1809 41.9982 39.3563 41.9982C41.5317 41.9982 43.3013 40.2285 43.3013 38.0532C43.3013 37.428 43.1544 36.8365 42.8944 36.3106L48.9979 30.2072L49.1823 30.0227C49.6781 29.5269 49.6781 28.723 49.1823 28.2273C48.6866 27.7315 47.883 27.7315 47.3869 28.2273ZM39.3563 39.4593C38.5811 39.4593 37.9504 38.8286 37.9504 38.0534C37.9504 37.2782 38.5811 36.6475 39.3563 36.6475C40.1315 36.6475 40.7622 37.2782 40.7622 38.0534C40.7622 38.8286 40.1315 39.4593 39.3563 39.4593Z" fill="white"/>
<path d="M52.9301 36.7993H51.7538C51.0528 36.7993 50.4843 37.3677 50.4843 38.0688C50.4843 38.77 51.0528 39.3384 51.7538 39.3384H52.9301C53.6311 39.3384 54.1996 38.77 54.1996 38.0688C54.1996 37.3677 53.6311 36.7993 52.9301 36.7993Z" fill="white"/>
<path d="M26.9588 36.7681H25.7827C25.0817 36.7681 24.5132 37.3364 24.5132 38.0376C24.5132 38.7388 25.0817 39.3071 25.7827 39.3071H26.9588C27.6599 39.3071 28.2283 38.7388 28.2283 38.0376C28.2283 37.3364 27.6599 36.7681 26.9588 36.7681Z" fill="white"/>
<path d="M39.3719 26.9249C40.073 26.9249 40.6415 26.3565 40.6415 25.6553V24.4792C40.6415 23.7781 40.073 23.2097 39.3719 23.2097C38.6709 23.2097 38.1024 23.7781 38.1024 24.4792V25.6553C38.1024 26.3565 38.6709 26.9249 39.3719 26.9249Z" fill="white"/>
<path d="M39.3403 49.1815C38.6392 49.1815 38.0707 49.7499 38.0707 50.4511V51.6271C38.0707 52.3283 38.6392 52.8967 39.3403 52.8967C40.0413 52.8967 40.6098 52.3283 40.6098 51.6271V50.4511C40.6098 49.7499 40.0413 49.1815 39.3403 49.1815Z" fill="white"/>
<path d="M1.26953 44.6172C0.935645 44.6172 0.608105 44.753 0.371973 44.9892C0.13584 45.2253 0 45.5528 0 45.8867C0 46.2219 0.135713 46.5481 0.371973 46.7843C0.608232 47.0204 0.935645 47.1562 1.26953 47.1562C1.60342 47.1562 1.93096 47.0204 2.16696 46.7843C2.4031 46.5481 2.53906 46.2206 2.53906 45.8867C2.53906 45.5528 2.40322 45.2253 2.16696 44.9892C1.93096 44.753 1.60342 44.6172 1.26953 44.6172Z" fill="white"/>
</g>
<defs>
<clipPath id="clip0_2_377">
<rect width="65" height="65" fill="white"/>
</clipPath>
</defs>
</svg>
