<svg width="65" height="65" viewBox="0 0 35 42" fill="none" xmlns="http://www.w3.org/2000/svg">
<path d="M34.999 14.3308V14.3286C34.9622 12.2784 33.2109 10.6214 31.0628 10.6214H20.5418V9.84375C20.5418 4.41559 15.9346 0 10.2709 0C4.6072 0 0 4.41559 0 9.84375V32.1562C0 37.5844 4.6072 42 10.2709 42C15.9346 42 20.5418 37.5844 20.5418 32.1562V18.1683H31.0628C33.1732 18.1683 34.9007 16.5694 34.9957 14.5679C34.9957 14.5679 34.9957 14.5679 34.9957 14.567C34.998 14.5096 35 14.4532 35 14.3949C35 14.3734 35 14.3523 34.999 14.3308ZM18.83 32.1562C18.83 36.6795 14.9904 40.3594 10.2709 40.3594C5.55137 40.3594 1.71182 36.6795 1.71182 32.1562V9.84375C1.71182 5.3205 5.55137 1.64062 10.2709 1.64062C14.9904 1.64062 18.83 5.3205 18.83 9.84375V10.6214H16.2623V9.81427C16.2623 6.6487 13.5749 4.07208 10.2709 4.07208C6.96697 4.07208 4.27955 6.6487 4.27955 9.81427V19.0018C4.27955 22.168 6.96697 24.744 10.2709 24.744C13.5749 24.744 16.2623 22.168 16.2623 19.0018V18.1683H18.83V32.1562ZM9.32272 18.1683H14.5505V19.0018C14.5505 21.2634 12.6307 23.1033 10.2709 23.1033C7.91114 23.1033 5.99136 21.2634 5.99136 19.0018V9.81427C5.99136 7.55264 7.91114 5.71271 10.2709 5.71271C12.6307 5.71271 14.5505 7.55264 14.5505 9.81427V10.6214H9.32272C8.84997 10.6214 8.46681 10.989 8.46681 11.4418V17.348C8.46681 17.8017 8.84997 18.1683 9.32272 18.1683ZM27.3035 15.2578H33.0963C32.7512 16.0051 31.9699 16.5277 31.0628 16.5277H10.1786V12.2621H31.0628C32.0033 12.2621 32.8094 12.8248 33.1341 13.6172H27.3035C26.8311 13.6172 26.4476 13.9847 26.4476 14.4375C26.4476 14.8903 26.8311 15.2578 27.3035 15.2578Z" fill="#00C170"/>
<path d="M10.271 26.4139C6.96708 26.4139 4.27966 28.9899 4.27966 32.1568C4.27966 35.3097 6.94334 37.8767 10.2272 37.8988C10.2419 37.8998 10.2563 37.8998 10.271 37.8998C10.2857 37.8998 10.3001 37.8998 10.3148 37.8988C13.5987 37.8767 16.2624 35.3097 16.2624 32.1568C16.2624 28.9899 13.575 26.4139 10.271 26.4139ZM10.271 32.9773C9.79927 32.9773 9.41512 32.609 9.41512 32.1568C9.41512 31.7047 9.79927 31.3364 10.271 31.3364C10.7428 31.3364 11.1269 31.7047 11.1269 32.1568C11.1269 32.609 10.7428 32.9773 10.271 32.9773ZM11.1269 36.1759V34.4771C12.1233 34.139 12.8387 33.2266 12.8387 32.1568C12.8387 30.8 11.6866 29.6956 10.271 29.6956C8.85543 29.6956 7.7033 30.8 7.7033 32.1568C7.7033 33.2266 8.41878 34.139 9.41512 34.4771V36.1759C7.46358 35.7955 5.99148 34.1374 5.99148 32.1568C5.99148 29.8949 7.91126 28.0548 10.271 28.0548C12.6308 28.0548 14.5506 29.8949 14.5506 32.1568C14.5506 34.1374 13.0785 35.7955 11.1269 36.1759Z" fill="#00C170"/>
<path d="M23.8819 15.2585C23.4091 15.2585 23.0256 14.8911 23.0256 14.4379C23.0256 13.9847 23.4085 13.6173 23.8812 13.6173H23.8819C24.3547 13.6173 24.7378 13.9847 24.7378 14.4379C24.7378 14.8911 24.3547 15.2585 23.8819 15.2585Z" fill="#00C170"/>
</svg>
