<svg width="65" height="65" viewBox="0 0 37 42" fill="none" xmlns="http://www.w3.org/2000/svg">
<path d="M33.8151 3.5389C29.646 -1.17963 22.8626 -1.17963 18.6935 3.5389C16.9649 5.4954 15.9058 7.97987 15.6307 10.7238C15.3965 13.0592 15.7737 15.4392 16.6965 17.5253L0 36.4229L4.76114 41.8117L6.70057 39.6166L8.80636 42L13.3253 36.8853L11.2195 34.502L12.769 32.7482L14.8748 35.1316L19.3938 30.0169L17.288 27.6335L21.4576 22.9141C23.3009 23.9585 25.4037 24.3855 27.467 24.1204C29.8913 23.8091 32.0865 22.6104 33.8151 20.6539C37.9842 15.9353 37.9842 8.25752 33.8151 3.5389ZM32.2774 18.9135C29.4902 22.0682 25.1949 22.654 21.8322 20.3381L21.1023 19.8354L14.2125 27.6335L16.3182 30.0169L14.8748 31.6506L12.769 29.2673L8.14394 34.502L10.2497 36.8853L8.80636 38.5191L6.70057 36.1357L4.76114 38.3308L3.07558 36.4229L19.4167 17.9276L18.9726 17.1015C16.9264 13.2955 17.444 8.43408 20.2312 5.27937C23.5523 1.52054 28.9562 1.52054 32.2774 5.27937C35.5985 9.03836 35.5985 15.1546 32.2774 18.9135Z" fill="#FFFFFF"/>
<path d="M25.8015 6.90824C24.4127 8.48027 24.4127 11.0382 25.8015 12.6104C26.4959 13.3963 27.408 13.7894 28.3202 13.7894C29.2323 13.7894 30.1445 13.3963 30.8389 12.6103H30.839C32.2277 11.0382 32.2277 8.48027 30.8389 6.90824C29.4501 5.33621 27.1903 5.33629 25.8015 6.90824ZM29.3012 10.8697C28.7602 11.482 27.8801 11.4819 27.3394 10.8697C26.7984 10.2574 26.7984 9.26111 27.3393 8.64897C27.6098 8.34282 27.965 8.18971 28.3202 8.18971C28.6755 8.18971 29.0308 8.34274 29.3012 8.64889C29.842 9.26119 29.842 10.2574 29.3012 10.8697Z" fill="#FFFFFF"/>
</svg>
