<svg width="65" height="65" viewBox="0 0 32 42" fill="none" xmlns="http://www.w3.org/2000/svg">
<path d="M29.3878 0H13.7143C12.2716 0 11.102 1.2536 11.102 2.8V11.2H2.61224C1.16954 11.2 0 12.4536 0 14V15.4C0 16.9464 1.16954 18.2 2.61224 18.2H11.102V30.8C11.102 36.9856 15.7802 42 21.551 42C27.3218 42 32 36.9856 32 30.8V2.8C32 1.2536 30.8305 0 29.3878 0ZM1.30612 15.4V14C1.30612 13.2268 1.89089 12.6 2.61224 12.6H21.551C22.2724 12.6 22.8571 13.2268 22.8571 14V15.4C22.8571 16.1732 22.2724 16.8 21.551 16.8H2.61224C1.89089 16.8 1.30612 16.1732 1.30612 15.4ZM21.551 11.2H17.489C18.8755 9.34379 21.2044 8.62852 23.2976 9.41604C25.3909 10.2036 26.7918 12.3221 26.7918 14.7C26.7918 17.0779 25.3909 19.1964 23.2976 19.984C21.2044 20.7715 18.8755 20.0562 17.489 18.2H21.551C22.9937 18.2 24.1633 16.9464 24.1633 15.4V14C24.1633 12.4536 22.9937 11.2 21.551 11.2ZM30.6939 30.8C30.6939 36.2124 26.6005 40.6 21.551 40.6C16.5016 40.6 12.4082 36.2124 12.4082 30.8V18.2H15.9151C17.393 20.9438 20.406 22.2815 23.261 21.4615C26.1161 20.6415 28.1014 17.8682 28.1014 14.7C28.1014 11.5318 26.1161 8.75852 23.261 7.93852C20.406 7.11852 17.393 8.45622 15.9151 11.2H12.4082V2.8C12.4082 2.0268 12.9929 1.4 13.7143 1.4H29.3878C30.1091 1.4 30.6939 2.0268 30.6939 2.8V30.8Z" fill="#00C170"/>
<path d="M15.6739 2.79974H14.3677C14.007 2.79974 13.7147 3.11385 13.7147 3.50132C13.7147 3.88879 14.007 4.2029 14.3677 4.2029H15.6739C16.0345 4.2029 16.3269 3.88879 16.3269 3.50132C16.3269 3.11385 16.0345 2.79974 15.6739 2.79974Z" fill="#00C170"/>
<path d="M24.8162 2.79974H18.2855C17.9249 2.79974 17.6325 3.11385 17.6325 3.50132C17.6325 3.88879 17.9249 4.2029 18.2855 4.2029H24.8162C25.1769 4.2029 25.4693 3.88879 25.4693 3.50132C25.4693 3.11385 25.1769 2.79974 24.8162 2.79974Z" fill="#00C170"/>
<path d="M21.5509 25.8997C20.5229 25.8986 19.59 26.544 19.1673 27.5485C18.7446 28.5529 18.9107 29.7298 19.5917 30.5552V32.2005C19.5922 32.7539 19.7963 33.2847 20.1599 33.6776C20.7187 34.2817 21.5622 34.4646 22.2961 34.141C23.03 33.8174 23.5094 33.0512 23.5101 32.2005V30.5552C24.1911 29.7298 24.3572 28.5529 23.9345 27.5485C23.5118 26.544 22.5788 25.8986 21.5509 25.8997ZM22.426 29.7361C22.2851 29.8689 22.2042 30.0601 22.2039 30.2612V32.2005C22.2002 32.4823 22.0392 32.7343 21.7953 32.8398C21.5515 32.9453 21.2724 32.8837 21.0872 32.6835C20.8456 32.4315 20.8978 32.3545 20.8978 30.2612C20.8976 30.0601 20.8167 29.8689 20.6758 29.7361C20.2746 29.348 20.1378 28.7349 20.3318 28.1942C20.5258 27.6534 21.0104 27.2965 21.5509 27.2965C22.0913 27.2965 22.576 27.6534 22.77 28.1942C22.964 28.7349 22.8272 29.348 22.426 29.7361Z" fill="#00C170"/>
<path d="M6.00774 22.82C6.29628 22.5881 6.35476 22.1493 6.13835 21.84C5.92195 21.5308 5.51261 21.4681 5.22407 21.7C2.75739 23.683 1.30569 26.7951 1.30569 30.1C1.30569 33.405 2.75739 36.517 5.22407 38.5C5.33711 38.5909 5.4746 38.64 5.61591 38.64C5.897 38.64 6.14656 38.4472 6.23545 38.1614C6.32435 37.8755 6.23262 37.5608 6.00774 37.38C3.86996 35.6614 2.61182 32.9643 2.61182 30.1C2.61182 27.2357 3.86996 24.5386 6.00774 22.82Z" fill="#00C170"/>
<path d="M7.57569 25.0604C7.76235 24.9104 7.86014 24.665 7.83223 24.4167C7.80433 24.1684 7.65496 23.9549 7.44039 23.8567C7.22583 23.7585 6.97866 23.7904 6.79201 23.9404C4.98308 25.3946 3.91849 27.6768 3.91849 30.1004C3.91849 32.524 4.98308 34.8062 6.79201 36.2604C6.90505 36.3513 7.04255 36.4004 7.18385 36.4004C7.46495 36.4004 7.71452 36.2076 7.80341 35.9217C7.8923 35.6359 7.80058 35.3212 7.57569 35.1404C6.09567 33.9506 5.22463 32.0834 5.22463 30.1004C5.22463 28.1174 6.09567 26.2502 7.57569 25.0604Z" fill="#00C170"/>
<path d="M9.14294 27.3001C9.32961 27.15 9.4274 26.9046 9.39949 26.6563C9.37158 26.4079 9.22221 26.1945 9.00764 26.0962C8.79307 25.9979 8.5459 26.0299 8.35924 26.1799C7.20807 27.1054 6.53058 28.5579 6.53058 30.1004C6.53058 31.643 7.20807 33.0954 8.35924 34.021C8.64779 34.2529 9.05715 34.1903 9.27356 33.8809C9.48998 33.5716 9.4315 33.1328 9.14294 32.9008C8.32068 32.2397 7.83676 31.2022 7.83676 30.1004C7.83676 28.9987 8.32068 27.9612 9.14294 27.3001Z" fill="#00C170"/>
</svg>
