<svg width="65" height="65" viewBox="0 0 32 42" fill="%23FFFFFF" xmlns="http://www.w3.org/2000/svg">
<path d="M16.0001 0C8.28004 0 2.00009 5.49497 2.00009 12.2498V20.1248C2.00009 20.6078 2.44812 20.9998 3.00012 20.9998C3.55212 20.9998 4.00006 20.6078 4.00006 20.1248V12.2498C4.00006 6.45916 9.38207 1.74995 16.0001 1.74995C22.6181 1.74995 28.0001 6.45916 28.0001 12.2498V15.7498H26.0001V12.2498C26.0001 7.42515 21.5141 3.49991 16.0001 3.49991C10.4861 3.49991 6.00003 7.42515 6.00003 12.2498V20.1248C6.00003 20.6078 6.44807 20.9998 7.00007 20.9998C7.55207 20.9998 8.0001 20.6078 8.0001 20.1248V12.2498C8.0001 8.38941 11.5881 5.24995 16.0001 5.24995C20.4121 5.24995 24.0001 8.38941 24.0001 12.2498V16.6248C24.0001 17.1078 24.4481 17.4998 25.0001 17.4998H29.0001C29.5521 17.4998 30.0002 17.1078 30.0002 16.6248V12.2498C30.0001 5.49497 23.7201 0 16.0001 0Z" fill="#FFFFFF"/>
<path d="M29.0001 19.2501H3C1.34597 19.2501 0 20.4278 0 21.8751V37.625C0 40.0364 2.244 41.9999 4.99997 41.9999H27C29.756 41.9999 32 40.0364 32 37.625V21.8751C32.0001 20.4278 30.654 19.2501 29.0001 19.2501ZM30 37.625C30 39.0722 28.6541 40.2499 27 40.2499H5.00007C3.34604 40.2499 2.00006 39.0722 2.00006 37.625V21.8751C2.00006 21.3921 2.4481 21.0001 3.0001 21.0001H29.0001C29.5521 21.0001 30.0001 21.3921 30.0001 21.8751V37.625H30Z" fill="#FFFFFF"/>
<path d="M18.7 30.5729C19.5261 29.9166 20.0001 28.996 20.0001 28.0002C20.0001 26.0698 18.2061 24.4999 16 24.4999C13.794 24.4999 12 26.0698 12 28.0002C12 28.996 12.474 29.9166 13.3 30.5712L12.052 33.8474C11.9481 34.1152 12 34.4092 12.1881 34.6367C12.376 34.866 12.6781 35.0007 13 35.0007H19C19.3221 35.0007 19.624 34.8659 19.812 34.6384C19.998 34.4091 20.05 34.1151 19.948 33.8491L18.7 30.5729ZM16.5741 30.5274L17.6121 33.2507H14.3881L15.4261 30.5274C15.5741 30.1372 15.3921 29.7084 14.9881 29.4984C14.3701 29.1764 14.0001 28.6163 14.0001 28.0003C14.0001 27.0359 14.8981 26.2502 16 26.2502C17.102 26.2502 18 27.036 18 28.0003C18 28.6163 17.63 29.1764 17.012 29.4984C16.608 29.7084 16.4241 30.1371 16.5741 30.5274Z" fill="#FFFFFF"/>
</svg>
