<svg width="65" height="65" viewBox="0 0 39 42" fill="none" xmlns="http://www.w3.org/2000/svg">
<path d="M31.401 13.194C30.5571 13.194 29.8707 13.8839 29.8707 14.7319V24.4625C29.8707 25.3105 30.5571 26.0004 31.401 26.0004C32.2448 26.0004 32.9312 25.3105 32.9312 24.4625V14.7319C32.9312 13.8839 32.2447 13.194 31.401 13.194ZM31.7332 24.4625C31.7332 24.6468 31.5841 24.7966 31.4008 24.7966C31.2175 24.7966 31.0683 24.6468 31.0683 24.4625V14.7319C31.0683 14.5476 31.2175 14.3978 31.4008 14.3978C31.5841 14.3978 31.7332 14.5476 31.7332 14.7319V24.4625Z" fill="#FFFFFF"/>
<path d="M36.8565 0H2.14344C0.96153 0 0 0.966328 0 2.15406V30.9916C0 31.324 0.268135 31.5934 0.598875 31.5934C0.929615 31.5934 1.19775 31.324 1.19775 30.9916V2.15406C1.19775 1.63004 1.62195 1.20381 2.14336 1.20381H36.8564C37.3778 1.20381 37.802 1.63004 37.802 2.15406V37.0403C37.802 37.5643 37.3778 37.9906 36.8564 37.9906H2.14344C1.62203 37.9906 1.19783 37.5643 1.19783 37.0403V34.8646C1.19783 34.5321 0.929697 34.2627 0.598956 34.2627C0.268216 34.2627 8.15791e-05 34.5322 8.15791e-05 34.8646V37.0403C8.15791e-05 38.2281 0.961612 39.1945 2.14353 39.1945H3.30561L3.56933 40.8078C3.65749 41.4885 4.23563 42 4.92037 42H7.3264C8.01106 42 8.58929 41.4885 8.67752 40.8078L8.94125 39.1945H30.0588L30.3225 40.8078C30.4108 41.4885 30.9889 42 31.6736 42H34.0796C34.7643 42 35.3425 41.4885 35.4307 40.8078L35.6945 39.1945H36.8566C38.0385 39.1945 39 38.2281 39 37.0403V2.15406C39 0.966328 38.0384 0 36.8565 0ZM7.49381 40.6239C7.49234 40.6327 7.49112 40.6415 7.49006 40.6503C7.48018 40.7335 7.4099 40.7962 7.32648 40.7962H4.92037C4.83695 40.7962 4.76667 40.7335 4.7568 40.6503C4.75582 40.6415 4.75451 40.6327 4.75304 40.6239L4.51944 39.1945H7.72742L7.49381 40.6239ZM34.247 40.6239C34.2456 40.6327 34.2443 40.6415 34.2433 40.6503C34.2334 40.7335 34.1631 40.7962 34.0797 40.7962H31.6737C31.5903 40.7962 31.52 40.7335 31.5101 40.6503C31.5091 40.6415 31.5078 40.6327 31.5064 40.6239L31.2727 39.1945H34.4806L34.247 40.6239Z" fill="#FFFFFF"/>
<path d="M19.4998 10.2946C14.3957 10.2946 10.243 14.4679 10.243 19.5974C10.243 24.7271 14.3957 28.9004 19.4998 28.9004C24.604 28.9004 28.7567 24.7271 28.7567 19.5974C28.7567 14.4678 24.6041 10.2946 19.4998 10.2946ZM19.4998 27.6966C15.0561 27.6966 11.4409 24.0633 11.4409 19.5974C11.4409 15.1315 15.0561 11.4983 19.4998 11.4983C23.9436 11.4983 27.5588 15.1316 27.5588 19.5974C27.5588 24.0633 23.9436 27.6966 19.4998 27.6966Z" fill="#FFFFFF"/>
<path d="M34.673 7.81192C35.0038 7.81192 35.2718 7.54244 35.2718 7.21005V5.6659C35.2718 4.59761 34.4071 3.72858 33.3441 3.72858H5.61874C4.55575 3.72858 3.69102 4.59761 3.69102 5.6659V8.81753H3.46672C2.88891 8.81753 2.41891 9.28987 2.41891 9.87056V12.423C2.41891 13.0037 2.88891 13.476 3.46672 13.476H3.69102V25.7194H3.46672C2.88891 25.7194 2.41891 26.1917 2.41891 26.7724V29.3247C2.41891 29.9054 2.88891 30.3777 3.46672 30.3777H3.69102V33.5294C3.69102 34.5977 4.55575 35.4668 5.61874 35.4668H33.3441C34.4071 35.4668 35.2718 34.5977 35.2718 33.5294V11.0269C35.2718 10.6944 35.0037 10.425 34.673 10.425C34.3421 10.425 34.0741 10.6945 34.0741 11.0269V33.5295C34.0741 33.934 33.7466 34.2631 33.3441 34.2631H5.61874C5.21625 34.2631 4.88877 33.934 4.88877 33.5295V30.3778H5.19225C5.77007 30.3778 6.24006 29.9055 6.24006 29.3248V26.7725C6.24006 26.1918 5.77007 25.7194 5.19225 25.7194H4.88877V13.476H5.19225C5.77007 13.476 6.24006 13.0037 6.24006 12.423V9.87056C6.24006 9.28987 5.77007 8.81753 5.19225 8.81753H4.88877V5.6659C4.88877 5.26141 5.21625 4.9323 5.61874 4.9323H33.3441C33.7466 4.9323 34.0741 5.26141 34.0741 5.6659V7.21005C34.0741 7.54253 34.3422 7.81192 34.673 7.81192ZM5.04239 26.9232V29.1739H4.28998H3.61683V26.9232H4.28998H5.04239ZM5.04231 10.0214V12.2722H4.2899H3.61675V10.0213H4.28835C4.28884 10.0213 4.28933 10.0214 4.2899 10.0214H5.04231Z" fill="#FFFFFF"/>
<path d="M19.5002 12.6555C15.6914 12.6555 12.5928 15.7696 12.5928 19.5973C12.5928 23.425 15.6915 26.5391 19.5002 26.5391C23.3089 26.5391 26.4076 23.425 26.4076 19.5973C26.4076 15.7696 23.3091 12.6555 19.5002 12.6555ZM25.1784 18.9954H23.6283C23.5267 18.2885 23.2496 17.6378 22.842 17.0904L23.9365 15.9904C24.6135 16.8299 25.0603 17.864 25.1784 18.9954ZM20.0992 13.8911C21.225 14.0096 22.254 14.4586 23.0894 15.1391L21.9948 16.2392C21.4501 15.8295 20.8026 15.551 20.0992 15.4489V13.8911ZM18.9014 13.8911V15.4489C18.198 15.551 17.5505 15.8294 17.0058 16.2392L15.9112 15.1391C16.7465 14.4586 17.7754 14.0095 18.9014 13.8911ZM15.064 15.9904L16.1585 17.0903C15.7508 17.6377 15.4738 18.2884 15.3722 18.9954H13.8221C13.9401 17.864 14.387 16.8299 15.064 15.9904ZM13.8222 20.1992H15.3722C15.4739 20.9062 15.7509 21.5569 16.1586 22.1044L15.0641 23.2043C14.387 22.3648 13.9401 21.3307 13.8222 20.1992ZM18.9014 25.3036C17.7756 25.1851 16.7465 24.7361 15.9112 24.0555L17.0057 22.9556C17.5504 23.3653 18.1979 23.6437 18.9014 23.7459V25.3036ZM16.5256 19.5974C16.5256 17.9464 17.8574 16.608 19.5002 16.608C21.143 16.608 22.4748 17.9464 22.4748 19.5974C22.4748 21.2484 21.143 22.5868 19.5002 22.5868C17.8574 22.5868 16.5256 21.2483 16.5256 19.5974ZM20.0992 25.3036V23.7459C20.8027 23.6437 21.4501 23.3653 21.9949 22.9556L23.0894 24.0555C22.2541 24.7361 21.2251 25.1851 20.0992 25.3036ZM23.9364 23.2042L22.8419 22.1043C23.2496 21.5569 23.5266 20.9062 23.6283 20.1991H25.1783C25.0603 21.3307 24.6135 22.3648 23.9364 23.2042Z" fill="#FFFFFF"/>
</svg>
